<?xml version="1.0" encoding="UTF-8" standalone="no"?>
<!-- Created with Inkscape (http://www.inkscape.org/) -->

<svg
   xmlns:dc="http://purl.org/dc/elements/1.1/"
   xmlns:cc="http://creativecommons.org/ns#"
   xmlns:rdf="http://www.w3.org/1999/02/22-rdf-syntax-ns#"
   xmlns:svg="http://www.w3.org/2000/svg"
   xmlns="http://www.w3.org/2000/svg"
   xmlns:sodipodi="http://sodipodi.sourceforge.net/DTD/sodipodi-0.dtd"
   xmlns:inkscape="http://www.inkscape.org/namespaces/inkscape"
   width="577.2605"
   height="760.70465"
   id="svg5414"
   version="1.1"
   inkscape:version="0.48.2 r9819"
   sodipodi:docname="sack.svg">
  <defs
     id="defs5416">
    <linearGradient
       id="linearGradient6747">
      <stop
         style="stop-color:#4a3725;stop-opacity:1;"
         offset="0"
         id="stop6749" />
      <stop
         id="stop6755"
         offset="0.12565143"
         style="stop-color:#b18356;stop-opacity:1;" />
      <stop
         style="stop-color:#aa8058;stop-opacity:1;"
         offset="1"
         id="stop6751" />
    </linearGradient>
    <linearGradient
       id="linearGradient6033">
      <stop
         style="stop-color:#aa8058;stop-opacity:1;"
         offset="0"
         id="stop6035" />
      <stop
         style="stop-color:#d0b9a4;stop-opacity:1;"
         offset="1"
         id="stop6037" />
    </linearGradient>
    <linearGradient
       id="linearGradient6011">
      <stop
         style="stop-color:#882d00;stop-opacity:1;"
         offset="0"
         id="stop6013" />
      <stop
         style="stop-color:#a96747;stop-opacity:1;"
         offset="1"
         id="stop6015" />
    </linearGradient>
    <linearGradient
       id="linearGradient5999">
      <stop
         style="stop-color:#a5603e;stop-opacity:1;"
         offset="0"
         id="stop6001" />
      <stop
         style="stop-color:#b97942;stop-opacity:1;"
         offset="1"
         id="stop6003" />
    </linearGradient>
    <linearGradient
       id="linearGradient5989">
      <stop
         style="stop-color:#9f542e;stop-opacity:1;"
         offset="0"
         id="stop5991" />
      <stop
         style="stop-color:#e29874;stop-opacity:1;"
         offset="1"
         id="stop5993" />
    </linearGradient>
    <linearGradient
       id="linearGradient5969">
      <stop
         style="stop-color:#271207;stop-opacity:1;"
         offset="0"
         id="stop5971" />
      <stop
         id="stop5977"
         offset="0.3784273"
         style="stop-color:#8c2f00;stop-opacity:1;" />
      <stop
         style="stop-color:#ffffff;stop-opacity:1;"
         offset="1"
         id="stop5973" />
    </linearGradient>
    <filter
       inkscape:collect="always"
       id="filter6813"
       color-interpolation-filters="sRGB">
      <feGaussianBlur
         inkscape:collect="always"
         stdDeviation="2.6327966"
         id="feGaussianBlur6815" />
    </filter>
    <filter
       inkscape:collect="always"
       id="filter6817"
       x="-0.1121091"
       width="1.2242182"
       y="-0.046528928"
       height="1.0930579"
       color-interpolation-filters="sRGB">
      <feGaussianBlur
         inkscape:collect="always"
         stdDeviation="2.6327966"
         id="feGaussianBlur6819" />
    </filter>
    <filter
       inkscape:collect="always"
       id="filter6821"
       x="-0.17068566"
       width="1.3413713"
       y="-0.043291368"
       height="1.0865827"
       color-interpolation-filters="sRGB">
      <feGaussianBlur
         inkscape:collect="always"
         stdDeviation="2.6327966"
         id="feGaussianBlur6823" />
    </filter>
    <filter
       inkscape:collect="always"
       id="filter6865"
       x="-0.22895835"
       width="1.4579167"
       y="-0.81760049"
       height="2.635201"
       color-interpolation-filters="sRGB">
      <feGaussianBlur
         inkscape:collect="always"
         stdDeviation="3.4071187"
         id="feGaussianBlur6867" />
    </filter>
  </defs>
  <sodipodi:namedview
     id="base"
     pagecolor="#ffffff"
     bordercolor="#666666"
     borderopacity="1.0"
     inkscape:pageopacity="0.0"
     inkscape:pageshadow="2"
     inkscape:zoom="0.49497475"
     inkscape:cx="-108.23962"
     inkscape:cy="342.81526"
     inkscape:document-units="px"
     inkscape:current-layer="layer1"
     showgrid="false"
     inkscape:window-width="1280"
     inkscape:window-height="752"
     inkscape:window-x="0"
     inkscape:window-y="0"
     inkscape:window-maximized="1"
     fit-margin-top="20"
     fit-margin-left="20"
     fit-margin-right="20"
     fit-margin-bottom="20" />
  <metadata
     id="metadata5419">
    <rdf:RDF>
      <cc:Work
         rdf:about="">
        <dc:format>image/svg+xml</dc:format>
        <dc:type
           rdf:resource="http://purl.org/dc/dcmitype/StillImage" />
        <dc:title></dc:title>
      </cc:Work>
    </rdf:RDF>
  </metadata>
  <g
     inkscape:label="Layer 1"
     inkscape:groupmode="layer"
     id="layer1"
     transform="translate(-72.679906,-47.803153)"
     style="display:inline">
    <path
       style="fill:#cecece;fill-opacity:1;stroke:none"
       id="path5943"
       d="m 220.24684,148.07727 c 0.50327,-0.0393 1.00861,-0.11267 1.51539,-0.15594 0.74078,-0.13358 1.4793,-0.25964 2.21551,-0.41634 0.95078,-0.18159 1.90013,-0.38597 2.83075,-0.65381 1.11254,-0.27606 2.2114,-0.59875 3.31783,-0.89758 1.28316,-0.31125 2.5487,-0.68636 3.82832,-1.0119 1.36674,-0.36652 2.69819,-0.84111 4.03005,-1.31508 1.42409,-0.49408 2.83085,-1.03653 4.23802,-1.57669 1.45265,-0.61083 2.91803,-1.1887 4.34973,-1.84807 1.51265,-0.64325 2.99256,-1.35642 4.4753,-2.06461 1.5118,-0.77155 3.0352,-1.51872 4.5419,-2.30047 1.55459,-0.8667 3.13477,-1.68527 4.67638,-2.57528 1.58851,-0.91687 3.18117,-1.82936 4.74839,-2.78256 1.62436,-0.97774 3.2409,-1.96827 4.86631,-2.94446 1.62209,-1.03947 3.29191,-2.00164 4.9553,-2.9728 1.68676,-0.98489 3.40384,-1.91806 5.06292,-2.9495 1.68961,-0.99784 3.3518,-2.03992 5.02089,-3.07132 1.65772,-1.03791 3.27131,-2.14179 4.85573,-3.28799 1.61716,-1.08278 3.11069,-2.32854 4.54056,-3.6448 1.41537,-1.32075 2.68612,-2.78206 3.8856,-4.29839 1.17084,-1.4981 2.19227,-3.10237 3.16447,-4.73381 2.50182,-4.384548 -0.69859,1.22808 -5.30911,9.16879 -0.16439,0.28313 0.31987,-0.57136 0.47596,-0.85915 0.47532,-0.87637 0.91879,-1.76723 1.35648,-2.66277 0.89749,-1.85283 1.6763,-3.75895 2.41815,-5.6783 0.76516,-1.98479 1.40437,-4.014101 2.09298,-6.025799 0.56408,-1.685864 1.23169,-3.332171 1.97211,-4.947443 2.45115,-4.908444 4.73738,-10.064504 8.41591,-14.161763 0.68003,-0.743087 1.48884,-1.326499 2.3762,-1.792957 0.75073,-0.379833 1.55149,-0.489719 2.38017,-0.425016 0.79273,0.02161 1.50479,0.334842 2.20737,0.668635 0.77944,0.37177 1.47689,0.867771 2.15697,1.393868 0.78949,0.623188 1.49052,1.349944 2.16886,2.09004 0.74208,0.820195 1.51593,1.611339 2.28994,2.401315 0.8919,0.850996 1.74155,1.74355 2.65386,2.572967 1.00522,0.88728 2.05123,1.722011 3.14699,2.494189 1.21062,0.829704 2.44468,1.620438 3.71782,2.350537 1.39106,0.788099 2.84782,1.448056 4.31817,2.071805 1.61245,0.675935 3.26599,1.245066 4.92807,1.78461 1.7978,0.577747 3.62142,1.068741 5.45069,1.535188 1.95338,0.493727 3.92338,0.916931 5.89719,1.319683 2.01452,0.345015 4.02964,0.684888 6.04316,1.036173 2.01048,0.367542 4.00673,0.805554 5.97657,1.350314 1.90844,0.524932 3.77528,1.19157 5.6334,1.870684 1.82202,0.69009 3.60237,1.48075 5.37787,2.28094 1.78783,0.81375 3.50472,1.77015 5.2226,2.71958 1.69381,0.98326 3.35612,2.01735 5.06543,2.97429 1.72751,1.00533 3.49349,1.94153 5.26495,2.8664 1.8513,0.94099 3.72225,1.84266 5.58095,2.7688 1.87041,0.95316 3.78349,1.81666 5.71599,2.6351 1.99907,0.84049 4.03971,1.57501 6.0911,2.2759 2.12657,0.72133 4.28186,1.35229 6.44455,1.95487 2.23436,0.61835 4.48855,1.16051 6.74791,1.67866 2.32556,0.52994 4.66488,0.99577 7.00784,1.44128 2.39552,0.44447 4.79506,0.87027 7.20714,1.21479 2.36122,0.34872 4.73939,0.55462 7.11628,0.76032 2.36461,0.22641 4.7378,0.33092 7.11,0.43925 2.34562,0.0715 4.6916,0.0899 7.03792,0.0602 2.36547,-0.0343 4.72864,-0.16319 7.0919,-0.2663 2.41517,-0.0975 4.82964,-0.21943 7.24637,-0.26978 2.37216,-0.049 4.74455,0.0207 7.11416,0.12633 2.30336,0.0887 4.59975,0.29705 6.88744,0.57408 2.24942,0.24868 4.47349,0.65834 6.68708,1.12092 2.11742,0.44243 4.19563,1.02699 6.23378,1.74847 1.91996,0.67793 3.70991,1.64431 5.48177,2.63401 1.70802,0.97252 3.33754,2.07695 4.92936,3.22784 1.5852,1.1518 3.02568,2.47974 4.40479,3.86701 1.38534,1.39722 2.58975,2.95297 3.78917,4.50788 1.21104,1.56346 2.40553,3.13766 3.53123,4.7639 1.1564,1.68187 2.17357,3.45181 3.14303,5.24606 0.9699,1.84178 1.83759,3.73461 2.75562,5.60232 0.93284,1.86628 1.81197,3.75853 2.73441,5.62991 0.92407,1.87917 1.87163,3.74669 2.77571,5.6356 0.88992,1.84321 1.60595,3.76046 2.27781,5.69143 0.64793,1.87679 1.14518,3.79894 1.59123,5.73201 0.42699,1.86299 0.70955,3.75371 0.8965,5.6546 0.15763,1.7837 0.17097,3.57464 0.0662,5.36107 -0.0981,1.61326 -0.47045,3.18302 -0.93039,4.72601 -1.75709,5.22172 -5.24634,9.9474 -7.91456,14.55143 -0.74824,0.91485 -1.65007,1.67582 -2.60781,2.36003 -0.91684,0.66401 -1.94619,1.12033 -2.99386,1.53129 -1.05384,0.37717 -2.1511,0.61333 -3.25666,0.77522 -1.19607,0.17334 -2.40354,0.24778 -3.60007,0.41446 -1.33791,0.16434 -2.66809,0.37509 -3.97399,0.71122 -1.3277,0.35136 -2.59298,0.85457 -3.80882,1.48849 -1.21369,0.65056 -2.28441,1.514 -3.29818,2.43714 -1.14362,0.90985 -2.08567,2.02726 -3.08006,3.08843 -0.98757,1.1859 -2.06114,2.29465 -3.05929,3.47111 -1.08436,1.19668 -2.07817,2.4705 -3.13198,3.69361 -1.10823,1.25636 -2.25574,2.47608 -3.43164,3.66927 -1.18401,1.25069 -2.41323,2.461 -3.68785,3.61939 -1.27388,1.223 -2.63113,2.35408 -3.93971,3.53908 -1.37541,1.16968 -2.73972,2.35267 -4.12188,3.51446 -1.47268,1.20672 -2.91996,2.44486 -4.41275,3.62684 -1.50445,1.25059 -3.07451,2.41852 -4.59943,3.64362 -1.5689,1.19459 -3.12262,2.40889 -4.6894,3.60625 -1.63024,1.19292 -3.288,2.34838 -4.9473,3.50046 -1.65342,1.21566 -3.36767,2.34552 -5.07746,3.47954 -1.75104,1.1157 -3.50231,2.23002 -5.29643,3.27561 -1.83024,1.05332 -3.66045,2.10848 -5.47723,3.18505 -1.85755,1.06642 -3.70557,2.1482 -5.59256,3.16215 -1.87632,1.03765 -3.75309,2.07558 -5.64921,3.07681 -1.91275,1.00847 -3.83135,2.002 -5.7858,2.92776 -1.93541,1.00138 -3.93929,1.85796 -5.9153,2.77316 -2.00376,0.93533 -4.0504,1.77254 -6.11227,2.56983 -2.12395,0.81574 -4.28359,1.53231 -6.4527,2.217 -2.2316,0.69974 -4.48815,1.31483 -6.75131,1.90292 -2.31156,0.58383 -4.63543,1.11537 -6.95038,1.6854 -2.31282,0.54003 -4.60959,1.14435 -6.91705,1.70647 -2.23054,0.50172 -4.44743,1.05781 -6.64355,1.69359 -1.57209,0.45691 -3.12222,0.98383 -4.64543,1.58323 -0.9435,0.37401 -1.85865,0.81458 -2.69816,1.38642 -2.914,2.52889 -8.95513,15.09591 5.31245,-9.61415 -0.19526,0.29 -0.37007,0.4043 -0.0732,0.67603 0.41476,0.31298 0.924,0.43673 1.41735,0.56751 0.76586,0.15227 1.5439,0.16518 2.32122,0.18543 1.01679,0.0479 2.03301,-0.0237 3.04876,-0.0662 1.25764,-0.0525 2.51568,-0.0942 3.77379,-0.1332 1.48404,-0.0454 2.96833,-0.0819 4.45266,-0.11632 1.67866,-0.0385 3.35746,-0.0702 5.03629,-0.10032 1.80869,-0.0562 3.61722,-0.0397 5.4215,0.099 1.76494,0.1265 3.50923,0.4288 5.25339,0.71424 1.75148,0.30545 3.4804,0.72121 5.21726,1.09793 1.78091,0.42348 3.5632,0.83945 5.33851,1.28586 1.82325,0.45875 3.63441,0.96295 5.45824,1.42001 1.87286,0.49465 3.74358,0.99575 5.59516,1.56553 1.86115,0.57141 3.71625,1.16349 5.55979,1.78952 1.87103,0.64508 3.75985,1.23583 5.63936,1.85535 1.89366,0.66825 3.79476,1.31441 5.68858,1.98212 1.92822,0.66292 3.85854,1.32044 5.77639,2.01298 1.92332,0.69595 3.82957,1.43842 5.73285,2.18719 1.92858,0.77383 3.8018,1.67755 5.66003,2.60543 1.90234,0.96118 3.74999,2.02216 5.57453,3.12239 1.8072,1.06654 3.56614,2.20917 5.30909,3.37664 1.69713,1.19063 3.38997,2.38978 5.04873,3.63366 1.6798,1.2251 3.26967,2.56537 4.89515,3.8599 1.62344,1.31882 3.28248,2.59291 4.93748,3.87166 1.6976,1.28787 3.39302,2.57876 5.07213,3.89069 1.66859,1.30404 3.36955,2.56539 5.06798,3.83 1.69323,1.26245 3.39406,2.51433 5.10272,3.75585 1.71004,1.23554 3.37989,2.52367 5.02749,3.84091 1.63573,1.30694 3.19033,2.70587 4.72467,4.12876 1.50407,1.42573 3.01965,2.83951 4.49273,4.29741 1.47743,1.44773 2.91289,2.93826 4.31394,4.45987 1.37265,1.54888 2.69111,3.14518 4.01754,4.73365 1.31631,1.60231 2.56932,3.25485 3.82259,4.90645 1.22116,1.66836 2.47868,3.30925 3.71825,4.96383 1.25009,1.6492 2.47943,3.31443 3.6808,4.99946 1.17318,1.71412 2.3685,3.41303 3.53504,5.13166 1.19268,1.75527 2.25553,3.59215 3.26891,5.45509 1.0242,1.92818 1.95389,3.90496 2.87093,5.88578 0.95026,2.05517 1.79294,4.15689 2.59726,6.27263 0.82066,2.17338 1.54265,4.3817 2.2328,6.59937 0.7032,2.27441 1.32227,4.5733 1.91434,6.87873 0.60229,2.35987 1.13329,4.73688 1.64138,7.11852 0.51137,2.42761 0.97722,4.8646 1.39694,7.30966 0.41024,2.39386 0.68412,4.80687 0.93799,7.22127 0.24799,2.37299 0.36952,4.75558 0.45742,7.13897 0.095,2.37372 0.0985,4.74977 0.0521,7.12456 -0.0461,2.34671 -0.13535,4.69163 -0.25952,7.03539 -0.11601,2.3262 -0.3036,4.64821 -0.50463,6.96838 -0.19982,2.2908 -0.49147,4.57154 -0.77756,6.85267 -0.27049,2.28553 -0.61066,4.5619 -0.92572,6.84152 -0.31188,2.27021 -0.69176,4.52991 -1.08856,6.78653 -0.40753,2.28203 -0.77526,4.57078 -1.12455,6.86235 -0.35782,2.36159 -0.6718,4.72945 -0.97192,7.09896 -0.30629,2.43281 -0.57577,4.86999 -0.83359,7.30834 -0.26215,2.49366 -0.49346,4.99039 -0.71491,7.48795 -0.22445,2.54568 -0.42299,5.09353 -0.61317,7.64197 -0.19225,2.59019 -0.36265,5.18192 -0.52596,7.77407 -0.16471,2.62829 -0.31096,5.25767 -0.45118,7.88736 -0.14114,2.66092 -0.26666,5.32262 -0.38704,7.98454 -0.12098,2.68887 -0.2287,5.37831 -0.33204,8.06791 -0.10371,2.71282 -0.19615,5.42606 -0.28486,8.13941 -0.0863,2.66102 -0.26025,5.31754 -0.45966,7.97207 -0.18389,2.58988 -0.45273,5.1726 -0.70008,7.75692 -0.25933,2.54665 -0.5623,5.08861 -0.84088,7.63321 -0.28103,2.57215 -0.53143,5.14747 -0.77117,7.72375 -0.24186,2.61268 -0.45658,5.22774 -0.66244,7.84347 -0.20652,2.62962 -0.40045,5.26003 -0.53278,7.89449 -0.1413,2.5745 -0.17825,5.15233 -0.20659,7.72997 -0.0544,2.50965 0.0233,5.01819 0.1277,7.52529 0.10905,2.41763 0.31531,4.82871 0.54073,7.23773 0.24476,2.35478 0.5238,4.70605 0.84057,7.05221 0.32073,2.30662 0.76672,4.59283 1.17935,6.88408 0.45995,2.52837 1.17203,4.99708 2.00031,7.42641 0.84293,2.31757 1.78913,4.59558 2.74815,6.86694 0.95509,2.21877 1.96258,4.41455 2.97438,6.60789 1.01506,2.12433 2.07245,4.22795 3.10882,6.34185 1.02046,2.08155 2.09908,4.13359 3.12664,6.21155 1.01637,2.07771 2.00051,4.17043 2.98087,6.26524 0.99743,2.08312 1.90899,4.20534 2.84184,6.31769 0.96509,2.07587 1.8762,4.17536 2.78525,6.27609 0.90985,2.10059 1.79688,4.21114 2.67994,6.32314 0.885,2.07815 1.7619,4.15969 2.68056,6.22326 0.85975,2.01453 1.87744,3.95301 2.93307,5.87003 1.02934,1.87017 2.09927,3.71714 3.26184,5.50773 1.10565,1.76631 2.37576,3.41495 3.67491,5.04055 1.27064,1.6111 2.69011,3.09401 4.11362,4.56862 1.39824,1.50006 2.8861,2.91106 4.38226,4.31202 1.49811,1.40686 2.99112,2.81914 4.4903,4.22486 1.52025,1.38505 3.05466,2.75339 4.5233,4.1935 1.4724,1.43515 2.89839,2.91776 4.29059,4.43062 1.36616,1.48448 2.59697,3.08224 3.74822,4.73666 1.00518,1.45162 1.84772,3.00322 2.57752,4.6085 0.59293,1.31348 0.96276,2.70107 1.18252,4.12083 0.15693,1.1328 0.0919,2.27436 -0.0364,3.40534 -0.11217,0.86502 -0.36904,1.69911 -0.72554,2.49263 -2.23515,3.89383 -3.57269,10.23572 -8.2485,12.21204 -0.75855,0.32564 -1.5765,0.43641 -2.38693,0.54901 -0.9448,0.11085 -1.88352,0.06 -2.82686,-0.0223 -1.1236,-0.14704 -2.24284,-0.31627 -3.35785,-0.51758 -1.22574,-0.2586 -2.43777,-0.58146 -3.63839,-0.93814 -1.3048,-0.40472 -2.62599,-0.75135 -3.95347,-1.0725 -1.51536,-0.36173 -3.04526,-0.6569 -4.57765,-0.93581 -1.66251,-0.32157 -3.34603,-0.50599 -5.02802,-0.68939 -1.74765,-0.15406 -3.49884,-0.23968 -5.25244,-0.27654 -1.84783,-0.0689 -3.69409,-0.004 -5.53891,0.0988 -1.75928,0.0591 -3.49968,0.32402 -5.22607,0.65138 -1.53662,0.34781 -3.07204,0.6963 -4.60135,1.07463 -1.59857,0.35948 -3.21305,0.64109 -4.82898,0.90929 -1.7618,0.28903 -3.53081,0.53067 -5.30124,0.75988 -1.8549,0.2961 -3.71239,0.5747 -5.57273,0.83438 -1.991,0.27592 -3.98712,0.51223 -5.98444,0.73697 -2.11408,0.23604 -4.23156,0.43952 -6.34985,0.63342 -2.21969,0.20174 -4.44165,0.37686 -6.66418,0.54395 -2.31026,0.17255 -4.62206,0.32316 -6.93426,0.46703 -2.39371,0.14711 -4.78826,0.28003 -7.18351,0.39941 -2.51554,0.12518 -5.03173,0.2365 -7.54812,0.34301 -2.56974,0.10819 -5.13997,0.204 -7.71034,0.29579 -2.66685,0.0903 -5.33397,0.17259 -8.00118,0.25128 -2.71319,0.0727 -5.42348,0.2298 -8.13427,0.3622 -2.71742,0.14325 -5.43773,0.22874 -8.15406,0.39132 -2.68083,0.16876 -5.35554,0.42339 -8.03213,0.64823 -2.70237,0.22698 -5.40658,0.43092 -8.11139,0.62639 -2.72452,0.19594 -5.45049,0.37082 -8.17687,0.53867 -2.74027,0.15973 -5.47985,0.33699 -8.22285,0.44263 -2.70075,0.0899 -5.40237,0.15057 -8.10388,0.2118 -2.67384,0.0659 -5.34905,0.0374 -8.02341,0.0252 -2.68367,-0.0452 -5.36584,-0.13263 -8.04656,-0.26401 -2.7016,-0.14766 -5.40553,-0.25273 -8.10591,-0.42146 -2.68811,-0.18252 -5.37327,-0.42141 -8.05307,-0.70074 -2.66533,-0.26594 -5.32382,-0.58818 -7.98148,-0.92056 -2.59755,-0.31303 -5.18539,-0.70024 -7.76819,-1.11631 -2.52266,-0.38459 -5.03264,-0.84465 -7.54706,-1.27856 -2.52355,-0.47449 -5.04946,-0.93554 -7.58004,-1.37102 -2.56204,-0.43905 -5.13195,-0.82967 -7.70412,-1.20404 -2.60469,-0.37711 -5.21513,-0.71238 -7.82718,-1.03389 -2.64119,-0.32341 -5.28652,-0.61123 -7.93301,-0.88732 -2.67232,-0.27737 -5.34763,-0.52445 -8.02379,-0.76151 -2.69889,-0.23789 -5.39995,-0.44998 -8.10162,-0.65352 -2.7216,-0.20403 -5.44477,-0.38608 -8.16839,-0.56083 -2.74102,-0.175 -5.48318,-0.33126 -8.22566,-0.48127 -2.75763,-0.15011 -5.51609,-0.28423 -8.27478,-0.413 -2.77185,-0.12877 -5.5443,-0.24387 -8.31692,-0.3544 -2.78402,-0.11046 -5.56848,-0.20925 -8.35307,-0.30412 -2.79445,-0.0948 -5.58922,-0.17954 -8.38408,-0.26097 -2.80339,-0.0813 -5.60701,-0.15405 -8.41069,-0.22394 -2.81104,-0.0697 -5.62225,-0.13218 -8.43351,-0.19216 -2.81761,-0.0598 -5.63533,-0.11341 -8.4531,-0.16489 -2.77231,-0.0873 -5.54348,-0.20685 -8.31503,-0.31513 -2.74054,-0.0803 -5.47694,-0.25015 -8.21371,-0.40895 -2.7176,-0.15899 -5.436,-0.3037 -8.15472,-0.44213 -2.75039,-0.13881 -5.50141,-0.26467 -8.25274,-0.38307 -2.90466,-0.0997 -5.80645,-0.25408 -8.70829,-0.41335 -3.01184,-0.16687 -6.02438,-0.32071 -9.03722,-0.46834 -2.9899,-0.15468 -5.98232,-0.2571 -8.9715,-0.42463 -2.92857,-0.16615 -5.8502,-0.43329 -8.76852,-0.72518 -2.89781,-0.29682 -5.79742,-0.57541 -8.6982,-0.84153 -2.89028,-0.26412 -5.78288,-0.50177 -8.67617,-0.73025 -2.84147,-0.20913 -5.67641,-0.49568 -8.50717,-0.81674 -2.7173,-0.30129 -5.4245,-0.68564 -8.12674,-1.09892 -2.58919,-0.35842 -5.14699,-0.89889 -7.6979,-1.46147 -2.4073,-0.57446 -4.79714,-1.22548 -7.16389,-1.94899 -2.31402,-0.70254 -4.60134,-1.49011 -6.86981,-2.32725 -2.20705,-0.78764 -4.36255,-1.70402 -6.51023,-2.63833 -2.17693,-0.91121 -4.31323,-1.91428 -6.47609,-2.85775 -2.1702,-0.92633 -4.33678,-1.86107 -6.49983,-2.80398 -2.11466,-0.89775 -4.12523,-2.00562 -6.08998,-3.19011 -1.70909,-1.05093 -3.3189,-2.25036 -4.86691,-3.52393 -1.20277,-1.00195 -2.29371,-2.12309 -3.28656,-3.3311 -0.76924,-0.94842 -1.38718,-1.99658 -1.87461,-3.11318 -0.37914,-0.89 -0.53355,-1.83061 -0.53256,-2.79181 0.43616,-4.73741 5.87734,-11.28238 7.01354,-13.2347 0.60014,-0.66246 1.33372,-1.17399 2.08399,-1.64973 0.92914,-0.57315 1.92713,-1.01784 2.93374,-1.43419 1.20696,-0.48953 2.4507,-0.87786 3.69971,-1.24325 1.44354,-0.41602 2.90757,-0.75407 4.37502,-1.07327 1.63495,-0.36325 3.29145,-0.61561 4.93198,-0.9495 1.74443,-0.35998 3.47874,-0.76872 5.21175,-1.18026 1.83968,-0.41875 3.66076,-0.91813 5.46036,-1.48424 1.77549,-0.49734 3.47007,-1.21666 5.1116,-2.04802 1.55886,-0.84855 3.04896,-1.82288 4.48831,-2.85993 1.4363,-1.04696 2.72294,-2.27291 3.95027,-3.5532 1.22367,-1.26198 2.22483,-2.70771 3.28546,-4.10221 1.07309,-1.4109 2.25306,-2.73339 3.35908,-4.1175 1.17245,-1.37521 2.24671,-2.83059 3.32221,-4.28179 1.08018,-1.52437 2.11335,-3.08262 3.08354,-4.67925 0.52841,-0.81502 1.0404,-1.64075 1.52988,-2.47977 0.16483,-0.28254 0.65104,-1.13496 0.48717,-0.85185 -5.80622,10.03149 -7.6597,13.38421 -5.29764,9.12693 0.98281,-1.78483 1.83907,-3.63408 2.65447,-5.49999 0.84254,-1.9389 1.55612,-3.92939 2.30348,-5.90585 0.75663,-2.01257 1.46775,-4.04187 2.19214,-6.0662 0.74481,-2.06977 1.40574,-4.16784 2.03447,-6.2753 0.61287,-2.16753 1.23227,-4.33331 1.83866,-6.50269 0.59084,-2.18297 1.19891,-4.36135 1.83712,-6.53096 0.65656,-2.18124 1.25504,-4.37899 1.82263,-6.58485 0.58493,-2.23005 1.17716,-4.45788 1.72987,-6.69621 0.56398,-2.2944 1.06033,-4.60445 1.53457,-6.91881 0.48387,-2.37603 0.90962,-4.76324 1.31689,-7.15341 0.41428,-2.44584 0.77967,-4.8995 1.12943,-7.35527 0.35476,-2.50526 0.66836,-5.01604 0.9687,-7.52832 0.30387,-2.55592 0.57302,-5.11575 0.83091,-7.67667 0.26034,-2.59918 0.49134,-5.20114 0.71277,-7.80388 0.19996,-2.61035 0.43793,-5.21722 0.71289,-7.82069 0.27851,-2.57247 0.66018,-5.13214 1.0113,-7.69532 0.35505,-2.57996 0.77091,-5.15055 1.22964,-7.71392 0.47521,-2.68762 0.97271,-5.37116 1.4947,-8.05008 0.52878,-2.63006 1.05716,-5.25997 1.64184,-7.87826 0.60237,-2.54654 1.18849,-5.09667 1.74266,-7.65414 0.55129,-2.5747 1.06072,-5.15827 1.51605,-7.75164 0.4208,-2.57488 0.69387,-5.1704 0.89995,-7.7703 0.19906,-2.60809 0.25701,-5.22322 0.31104,-7.83737 0.0591,-2.57831 0.0386,-5.1579 -0.007,-7.73624 -0.0553,-2.59864 -0.21637,-5.19358 -0.41145,-7.785 -0.19011,-2.57676 -0.46111,-5.14672 -0.77033,-7.71163 -0.28857,-2.51346 -0.64975,-5.01737 -1.00112,-7.52255 -0.36976,-2.46802 -0.76714,-4.93172 -1.13626,-7.39986 -0.37742,-2.56716 -0.70731,-5.14094 -1.02455,-7.71613 -0.32208,-2.62025 -0.61775,-5.24339 -0.84598,-7.87354 -0.22715,-2.6465 -0.40149,-5.29638 -0.49564,-7.9509 -0.0427,-2.74662 -6.5e-4,-5.49433 0.0603,-8.24041 0.0905,-2.83623 0.29586,-5.66658 0.51557,-8.49513 0.24289,-2.83287 0.51717,-5.66316 0.83243,-8.48889 0.31907,-2.71366 0.70902,-5.41816 1.1492,-8.11462 0.43612,-2.66034 1.02952,-5.28837 1.69586,-7.89918 0.66989,-2.56284 1.40574,-5.10755 2.14361,-7.65141 0.69375,-2.45112 1.53991,-4.85441 2.37809,-7.25866 0.80868,-2.31318 1.70933,-4.59332 2.61776,-6.86882 0.89232,-2.24253 1.79091,-4.48278 2.71246,-6.71349 0.94297,-2.25779 1.93504,-4.49426 2.8697,-6.75557 0.94046,-2.23735 1.84188,-4.49065 2.76065,-6.73691 0.89301,-2.22503 1.77368,-4.45466 2.69843,-6.6668 0.93248,-2.17136 1.87261,-4.33956 2.82332,-6.50303 0.95699,-2.14429 1.94377,-4.27535 2.94064,-6.40138 0.99238,-2.07966 1.99137,-4.15623 3.01325,-6.22159 2.86116,-5.74122 6.14193,-11.26547 9.54159,-16.70309 1.18572,-1.86329 2.50031,-3.63944 3.83799,-5.39524 1.35503,-1.70409 2.794,-3.34245 4.2831,-4.93039 1.50432,-1.53909 3.04536,-3.04055 4.65629,-4.4679 1.62016,-1.42497 3.36094,-2.70031 5.13766,-3.92075 1.77652,-1.23162 3.61352,-2.36911 5.43152,-3.53704 1.83202,-1.1633 3.72302,-2.22989 5.60542,-3.30862 1.91011,-1.05259 3.81456,-2.11457 5.75462,-3.11142 1.96019,-0.95993 3.87702,-2.00413 5.82223,-2.99343 1.95344,-0.99239 3.91076,-1.97353 5.90239,-2.88759 1.97081,-0.98789 4.0067,-1.83401 6.01543,-2.739 2.00643,-0.91274 4.00751,-1.83428 6.03965,-2.68923 2.08486,-0.872 4.21063,-1.63947 6.34754,-2.37262 2.19827,-0.74911 4.42552,-1.40765 6.66046,-2.0372 2.29471,-0.64225 4.60968,-1.20762 6.93006,-1.7484 2.37652,-0.55049 4.76725,-1.03594 7.16182,-1.50052 2.44609,-0.4718 4.90219,-0.88864 7.36102,-1.28776 2.50535,-0.40437 5.0178,-0.76228 7.5322,-1.10514 2.55591,-0.34661 5.11688,-0.65391 7.67924,-0.94841 2.59911,-0.29713 5.20183,-0.56095 7.80555,-0.81388 2.30738,-0.214 4.61091,-0.47838 6.89624,-0.86401 1.63829,-0.27766 3.25363,-0.68205 4.84131,-1.16987 0.86065,-0.32404 1.7121,-0.67958 2.29463,-1.41571 2.49312,-4.85855 -8.51703,14.32388 -5.62617,9.68196 0.10639,-0.37392 -0.1782,-0.57811 -0.45557,-0.78643 -0.56354,-0.37458 -1.2038,-0.60544 -1.83877,-0.82636 -0.93579,-0.31321 -1.89744,-0.53782 -2.86024,-0.74943 -1.2274,-0.27045 -2.47203,-0.4486 -3.70652,-0.6809 -1.43635,-0.23763 -2.83772,-0.6226 -4.22804,-1.04663 -1.41294,-0.4516 -2.76579,-1.07064 -4.08082,-1.75219 -1.32146,-0.71211 -2.57541,-1.53598 -3.80955,-2.38796 -1.28402,-0.86468 -2.52317,-1.79079 -3.74762,-2.73696 -1.24831,-0.99698 -2.50632,-1.98249 -3.78929,-2.93456 -1.32988,-1.00148 -2.67744,-1.98019 -4.04541,-2.92901 -1.43473,-1.01123 -2.88011,-2.00717 -4.32504,-3.00373 -1.48024,-1.05665 -2.93696,-2.14606 -4.40591,-3.21849 -1.49867,-1.07951 -3.01329,-2.13613 -4.53246,-3.18652 -1.53497,-1.08504 -3.07749,-2.16008 -4.64074,-3.20406 -1.62052,-1.05693 -3.25386,-2.09407 -4.87651,-3.14766 -1.67228,-1.06391 -3.30317,-2.19062 -4.96083,-3.27676 -1.66734,-1.09405 -3.31354,-2.2193 -4.95846,-3.34658 -1.65127,-1.13095 -3.33644,-2.21149 -4.98182,-3.3509 -1.62496,-1.17024 -3.23773,-2.35561 -4.83156,-3.56781 -1.61474,-1.20468 -3.10611,-2.55746 -4.53434,-3.97499 -1.4298,-1.43298 -2.70543,-3.00518 -3.9243,-4.61804 -1.19689,-1.65288 -2.34491,-3.34129 -3.44717,-5.05864 -1.10951,-1.72243 -2.2016,-3.45634 -3.27204,-5.20333 -1.06412,-1.77185 -2.10465,-3.55755 -3.14896,-5.3411 -0.97375,-1.79467 -2.08095,-3.50585 -3.23497,-5.188 -1.13633,-1.64524 -2.38648,-3.20881 -3.67256,-4.73856 -1.28747,-1.52184 -2.73337,-2.89586 -4.20095,-4.24061 -1.53139,-1.40579 -3.13999,-2.71543 -4.82344,-3.93358 -1.79367,-1.257 -3.66082,-2.40575 -5.54248,-3.52525 -1.93052,-1.14339 -3.8938,-2.22807 -5.85445,-3.31826 -1.94735,-1.09066 -3.88878,-2.18968 -5.8689,-3.22024 -1.97081,-1.04222 -3.93944,-2.08877 -5.90057,-3.14911 -1.91225,-1.06114 -3.77353,-2.20943 -5.5586,-3.47258 -1.54258,-1.09514 -2.97104,-2.33518 -4.32608,-3.65231 -1.07494,-1.05386 -2.01475,-2.22676 -2.84778,-3.4777 -0.68737,-1.04838 -1.21682,-2.1819 -1.61915,-3.36635 -0.33827,-1.04336 -0.41272,-2.12693 -0.34284,-3.21382 0.71701,-4.93497 5.58129,-10.83929 7.25694,-13.72501 0.63336,-0.8119 1.40962,-1.48317 2.24192,-2.08138 0.83628,-0.59829 1.77149,-1.01276 2.73102,-1.3663 l -5.34814,11.6016 0,0 c -0.86099,0.40097 -1.68172,0.88205 -2.3953,1.51545 -0.71881,0.65868 -1.38044,1.37958 -1.85712,2.23755 11.27977,-19.56822 6.67673,-12.64075 5.02929,-8.40686 -0.22858,0.95774 -0.30649,1.93017 -0.10669,2.90378 0.26549,1.12501 0.69973,2.18799 1.30119,3.17816 0.74688,1.20691 1.58899,2.34832 2.59632,3.35416 1.28377,1.29648 2.65029,2.50767 4.13064,3.57768 1.73678,1.24257 3.55258,2.36573 5.41956,3.40278 1.95473,1.05799 3.91753,2.10117 5.88187,3.14117 1.99037,1.03629 3.9425,2.14014 5.89933,3.23788 1.97061,1.09704 3.94473,2.18701 5.88578,3.33623 1.9146,1.13666 3.81503,2.30179 5.64224,3.57555 1.72753,1.23879 3.38477,2.56355 4.95339,4.00003 1.51369,1.37228 3.00578,2.77417 4.34159,4.32373 1.32398,1.55039 2.60217,3.14342 3.7796,4.80858 1.1728,1.70305 2.34104,3.41068 3.31198,5.2406 1.03715,1.77962 2.08011,3.55564 3.13019,5.32763 1.05639,1.74644 2.14729,3.47226 3.25152,5.18874 1.073,1.70112 2.20629,3.36269 3.36762,5.0046 1.16917,1.57794 2.39372,3.11715 3.77154,4.52035 1.37765,1.38863 2.81853,2.71372 4.38677,3.88707 1.57975,1.20075 3.17504,2.37884 4.78403,3.54028 1.64061,1.14167 3.32597,2.2172 4.97524,3.34636 1.63821,1.12131 3.27532,2.24401 4.93544,3.33285 1.65786,1.08322 3.28621,2.2111 4.9579,3.27328 1.62649,1.0567 3.26794,2.0904 4.89252,3.15013 1.57087,1.04491 3.1199,2.12277 4.6601,3.21227 1.52933,1.05453 3.05253,2.11749 4.56206,3.20019 1.46139,1.06345 2.90967,2.14493 4.37779,3.19886 1.44711,0.99446 2.89541,1.9873 4.33125,2.99802 1.38164,0.95203 2.74137,1.93652 4.08268,2.94449 1.29381,0.95172 2.56124,1.93942 3.81521,2.9429 1.20827,0.93084 2.4241,1.85111 3.69341,2.69839 1.18794,0.82313 2.39646,1.61719 3.67035,2.30275 1.24792,0.64277 2.53262,1.22457 3.87664,1.63774 1.34843,0.40268 2.71151,0.74997 4.10294,0.97168 1.25542,0.21726 2.51554,0.41108 3.76019,0.68625 1.01247,0.2257 2.02333,0.46676 3.00585,0.80302 0.74703,0.26507 1.49198,0.55187 2.16158,0.98345 0.53367,0.36502 1.03369,0.77815 1.35357,1.35239 2.03212,4.40098 -2.9731,9.80881 -6.77582,12.56851 -0.86462,0.51014 -1.7958,0.88489 -2.7674,1.14138 -1.63391,0.43001 -3.28257,0.80843 -4.9562,1.04974 -2.3052,0.33234 -4.62037,0.5842 -6.94031,0.78919 -2.59752,0.25679 -5.194,0.52468 -7.78673,0.82653 -2.5549,0.29905 -5.10835,0.61114 -7.65655,0.96337 -2.50537,0.34823 -5.00872,0.71181 -7.50467,1.12288 -2.44787,0.40546 -4.89291,0.82901 -7.32747,1.30882 -2.38119,0.47209 -4.75838,0.96551 -7.12067,1.52559 -2.30397,0.54967 -4.60229,1.12451 -6.87928,1.77828 -2.21475,0.6401 -4.42144,1.3099 -6.5975,2.07281 -2.11252,0.74576 -4.21311,1.52711 -6.27125,2.41379 -2.01902,0.87327 -4.01121,1.80514 -6.02137,2.69836 -2.01206,0.88743 -4.01702,1.78964 -5.99648,2.74827 -1.97158,0.93234 -3.91501,1.92078 -5.85894,2.9092 -1.9361,1.00306 -3.86797,2.01419 -5.81487,2.99629 -1.91858,1.01429 -3.81811,2.06483 -5.70628,3.13456 -1.86816,1.0823 -3.74467,2.15203 -5.55347,3.33266 -1.81691,1.15115 -3.6174,2.32736 -5.38065,3.5597 -1.7318,1.2412 -3.42471,2.5388 -4.99376,3.98346 -1.56784,1.44982 -3.09531,2.94534 -4.54787,4.5112 -1.44673,1.60754 -2.8734,3.23772 -4.16462,4.97453 -1.30544,1.76944 -2.59328,3.55342 -3.73475,5.43503 -2.31523,3.7481 -5.65398,9.67883 4.54537,-7.99718 1.76281,-3.05504 -3.49711,5.88264 -1.59281,2.99642 -1.05112,2.04964 -2.02577,4.13625 -3.04421,6.2021 -0.9944,2.12643 -1.99537,4.24996 -2.96017,6.38998 -0.97665,2.14938 -1.87976,4.331 -2.84705,6.48463 -0.92736,2.21114 -1.84955,4.42395 -2.70913,6.66265 -0.91734,2.24785 -1.81359,4.50425 -2.76332,6.73875 -0.91325,2.27143 -1.89356,4.51326 -2.85948,6.76241 -0.94306,2.21909 -1.83017,4.46175 -2.72794,6.69932 -0.90919,2.27172 -1.82247,4.54253 -2.66832,6.83874 -0.83038,2.40221 -1.71057,4.78846 -2.43682,7.22526 -0.73149,2.54252 -1.48354,5.07881 -2.17618,7.6324 -0.67172,2.59441 -1.3368,5.19011 -1.78143,7.83587 -0.46877,2.68379 -0.85968,5.37931 -1.20954,8.08113 -0.32636,2.81808 -0.60958,5.64021 -0.86985,8.46522 -0.22257,2.81472 -0.44542,5.6294 -0.56333,8.45101 -0.0871,2.72961 -0.10236,5.46129 -0.11246,8.19214 0.0587,2.64119 0.2201,5.27717 0.44058,7.90975 0.20993,2.6207 0.48355,5.23448 0.80798,7.84364 0.31045,2.56635 0.63315,5.13136 1.00315,7.68991 0.36365,2.47177 0.75009,4.93996 1.14431,7.40703 0.34939,2.51101 0.72784,5.01812 1.01711,7.53707 0.32047,2.57741 0.61335,5.15895 0.81252,7.74896 0.2085,2.60372 0.39357,5.21038 0.46909,7.82187 0.0754,2.58891 0.0875,5.18078 0.0496,7.7704 -0.0484,2.62575 -0.086,5.25272 -0.25742,7.8741 -0.16524,2.62508 -0.43645,5.24138 -0.80618,7.84583 -0.41703,2.60796 -0.93578,5.19822 -1.46995,7.78449 -0.5422,2.56304 -1.1108,5.1204 -1.72753,7.66667 -0.6195,2.60767 -1.14358,5.23536 -1.67504,7.8621 -0.54981,2.66884 -1.03492,5.35077 -1.51284,8.03329 -0.46317,2.55149 -0.89771,5.10692 -1.26799,7.67384 -0.34474,2.55958 -0.72988,5.114 -1.03735,7.67829 -0.30153,2.59514 -0.54469,5.19701 -0.74106,7.80219 -0.21612,2.60568 -0.44154,5.21063 -0.69546,7.81294 -0.25158,2.56449 -0.51408,5.12795 -0.81026,7.68773 -0.2928,2.51664 -0.59845,5.03186 -0.94396,7.54189 -0.34069,2.46112 -0.69654,4.92027 -1.09962,7.37207 -0.39636,2.3968 -0.81058,4.79081 -1.28086,7.17438 -0.46104,2.32249 -0.94324,4.64101 -1.4915,6.94473 -0.53695,2.24321 -1.10342,4.47915 -1.71954,6.70207 -0.5509,2.215 -1.12881,4.42348 -1.77995,6.61145 -0.64285,2.16564 -1.27728,4.33414 -1.85594,6.51797 -0.59268,2.17515 -1.23435,4.33615 -1.82152,6.51278 -0.60908,2.11957 -1.24766,4.23109 -1.97507,6.31355 -0.71191,2.03075 -1.44788,4.05288 -2.17001,6.07996 -0.74616,1.98114 -1.46477,3.97289 -2.25819,5.93582 -0.78636,1.8856 -1.61142,3.75618 -2.55855,5.56764 -2.86497,5.4332 -6.00022,10.72537 -9.26838,15.92533 -1.0132,1.58186 -2.05502,3.14779 -3.18799,4.64706 -1.09652,1.4436 -2.19745,2.88324 -3.37016,4.26657 -1.12826,1.36108 -2.26201,2.71789 -3.31857,4.13638 -1.06526,1.41323 -2.17092,2.79883 -3.44328,4.03427 -1.299,1.25676 -2.65921,2.45159 -4.16039,3.4648 -1.50327,1.01136 -3.03251,1.99587 -4.67168,2.77556 -1.71179,0.78578 -3.4717,1.4507 -5.28674,1.96033 -1.82964,0.53744 -3.67163,1.03109 -5.5319,1.45206 -1.74825,0.416 -3.49915,0.82464 -5.26299,1.16962 -1.63857,0.30871 -3.28086,0.60076 -4.90609,0.9757 -1.44264,0.33376 -2.88151,0.6878 -4.29555,1.12955 -1.20982,0.3846 -2.41388,0.79435 -3.56938,1.32395 -0.94216,0.44305 -1.8747,0.91872 -2.70212,1.55778 -0.64801,0.5235 -1.26149,1.09454 -1.65371,1.84249 11.27229,-19.5218 7.01866,-13.08923 5.27148,-8.94301 -0.19773,0.81837 -0.22131,1.63872 0.0262,2.45378 0.34147,1.05799 0.85448,2.03837 1.534,2.92184 0.9002,1.17949 1.91402,2.26359 3.04558,3.22616 1.4818,1.25654 3.03007,2.43482 4.68497,3.45667 1.90974,1.16634 3.87294,2.24261 5.9353,3.1184 2.16278,0.9437 4.32947,1.87838 6.49915,2.8061 2.16162,0.9444 4.29812,1.94535 6.47586,2.85275 2.12729,0.9213 4.26089,1.82823 6.44572,2.60707 2.24641,0.82624 4.51067,1.60558 6.80274,2.29639 2.33805,0.70508 4.69519,1.35167 7.07284,1.9096 2.5247,0.55475 5.05755,1.07866 7.61958,1.43309 2.68629,0.40898 5.37793,0.78581 8.079,1.08423 2.81691,0.31729 5.63827,0.59632 8.46546,0.80564 2.89793,0.23105 5.79516,0.47136 8.69004,0.73832 2.9032,0.26871 5.80512,0.55064 8.70569,0.84633 2.90145,0.28568 5.80655,0.54142 8.71794,0.70234 2.98668,0.16129 5.97592,0.27063 8.96296,0.42544 3.0146,0.14947 6.02885,0.30587 9.04263,0.47113 2.9002,0.15476 5.80136,0.28214 8.70366,0.3911 2.7554,0.11707 5.51049,0.24096 8.26474,0.38269 2.72149,0.1395 5.44264,0.28546 8.16303,0.44498 2.72906,0.15818 5.45803,0.32014 8.19075,0.40169 2.76293,0.10837 5.5255,0.22962 8.2895,0.3074 2.81899,0.0519 5.63795,0.10591 8.45678,0.16622 2.8127,0.0605 5.62534,0.12342 8.43782,0.19373 2.80536,0.0705 5.61066,0.14382 8.41572,0.22578 2.79684,0.0821 5.59358,0.1676 8.38999,0.26315 2.7869,0.0957 5.57367,0.19529 8.36,0.30668 2.77533,0.11149 5.5505,0.22758 8.32504,0.35745 2.76189,0.1299 5.52353,0.26518 8.28433,0.4166 2.74624,0.15136 5.49214,0.30901 8.23689,0.48557 2.72804,0.17634 5.45563,0.36006 8.18162,0.56594 2.70689,0.20546 5.41316,0.41954 8.11723,0.65964 2.68233,0.23937 5.3638,0.48885 8.04223,0.76888 2.65382,0.27887 5.30644,0.56959 7.95486,0.89621 2.62075,0.32489 5.23984,0.66368 7.8531,1.04466 2.5823,0.37845 5.16229,0.77337 7.73434,1.21684 2.53067,0.43797 5.0562,0.90377 7.5822,1.36777 2.50917,0.43459 5.01494,0.88933 7.53249,1.27393 2.56874,0.41157 5.14297,0.79057 7.72601,1.10172 2.64851,0.33107 5.29858,0.64648 7.9549,0.90935 2.66461,0.26576 5.33243,0.51106 8.00513,0.67906 2.69668,0.15568 5.39553,0.27125 8.093,0.41232 2.66481,0.12352 5.33142,0.20411 7.99897,0.23689 2.66363,0.0109 5.32803,0.0342 7.99105,-0.0376 2.69474,-0.0626 5.38965,-0.12372 8.08341,-0.22082 2.73442,-0.11711 5.46608,-0.28953 8.19803,-0.45321 2.7226,-0.17017 5.44477,-0.34746 8.16545,-0.54615 2.70076,-0.19819 5.4009,-0.40513 8.09922,-0.63445 2.68643,-0.22764 5.3715,-0.48128 8.06369,-0.63197 2.71981,-0.1426 5.44153,-0.24622 8.16151,-0.38618 2.71818,-0.13361 5.43607,-0.28277 8.15684,-0.35331 2.6662,-0.0805 5.33234,-0.16346 7.99792,-0.26248 2.56842,-0.094 5.1367,-0.19208 7.70445,-0.30297 2.51422,-0.10921 5.02828,-0.22271 7.54142,-0.35477 2.3921,-0.12869 4.78401,-0.26126 7.17473,-0.41382 2.30832,-0.14801 4.61623,-0.30298 6.92248,-0.48072 2.21754,-0.17206 4.43448,-0.35245 6.64897,-0.56057 2.11176,-0.19992 4.22265,-0.4098 6.32983,-0.65378 1.98883,-0.23211 3.97634,-0.47645 5.95834,-0.76177 1.86358,-0.26974 3.72292,-0.56715 5.58668,-0.83549 1.75864,-0.23843 3.51573,-0.49 5.26463,-0.79282 1.59071,-0.27897 3.18026,-0.57125 4.74967,-0.95494 1.5509,-0.37801 3.10834,-0.7344 4.67587,-1.03643 1.77388,-0.29135 3.55973,-0.50144 5.35775,-0.56497 1.8742,-0.0906 3.74981,-0.1178 5.62575,-0.0577 1.78712,0.0469 3.57325,0.14199 5.35247,0.32064 1.71095,0.18961 3.42023,0.39839 5.11162,0.72443 1.55666,0.28482 3.11069,0.58656 4.64975,0.95642 1.34621,0.32772 2.68528,0.68295 4.01106,1.08623 1.16214,0.33019 2.33116,0.64372 3.51959,0.86523 1.07721,0.18373 2.15981,0.34264 3.24811,0.444 0.85653,0.0462 1.71692,0.0299 2.56276,-0.12941 0.705,-0.14157 1.39603,-0.33427 2.00343,-0.73574 3.3382,-2.38157 7.27923,-14.59135 -5.03133,9.41119 0.48802,-0.68364 0.86681,-1.41988 1.08625,-2.23579 0.2554,-1.04923 0.36506,-2.13 0.34429,-3.20997 -0.0883,-1.34843 -0.34963,-2.67094 -0.85624,-3.92948 -0.6401,-1.5715 -1.41814,-3.08052 -2.35687,-4.49653 -1.09662,-1.62596 -2.26684,-3.20169 -3.59138,-4.65155 -1.36949,-1.50519 -2.78071,-2.97348 -4.23523,-4.39675 -1.45246,-1.44144 -2.97717,-2.80433 -4.49464,-4.17656 -1.50145,-1.40267 -2.99085,-2.81821 -4.48889,-4.22451 -1.5148,-1.4109 -3.02378,-2.83052 -4.43608,-4.34545 -1.45578,-1.49695 -2.90768,-3.00289 -4.21505,-4.63359 -1.3234,-1.65307 -2.6488,-3.30737 -3.77293,-5.10669 -1.19836,-1.8019 -2.29541,-3.66601 -3.33827,-5.56203 -1.08708,-1.93566 -2.14162,-3.89311 -3.01958,-5.93437 -0.93868,-2.06658 -1.80967,-4.16215 -2.70879,-6.24605 -0.8727,-2.11001 -1.76636,-4.21145 -2.66241,-6.31158 -0.91797,-2.09513 -1.79296,-4.20938 -2.77977,-6.27395 -0.92662,-2.10549 -1.83215,-4.22075 -2.81583,-6.30053 -0.98663,-2.08531 -1.94682,-4.18299 -2.96272,-6.25447 -1.01669,-2.08511 -2.09709,-4.13755 -3.12793,-6.21561 -1.03138,-2.12494 -2.09489,-4.23404 -3.12673,-6.3588 -1.02821,-2.20059 -2.02717,-4.41511 -3.00794,-6.63721 -0.96919,-2.29242 -1.93434,-4.58687 -2.81276,-6.91613 -0.8779,-2.46153 -1.63672,-4.96443 -2.1531,-7.52934 -0.46923,-2.29347 -0.86683,-4.60257 -1.24211,-6.91324 -0.32771,-2.35797 -0.61487,-4.72062 -0.88152,-7.08634 -0.23103,-2.42408 -0.45936,-4.84815 -0.58974,-7.28032 -0.11241,-2.5219 -0.22889,-5.0452 -0.17789,-7.57047 0.0235,-2.58761 0.0366,-5.17606 0.17104,-7.76093 0.11691,-2.64293 0.29256,-5.28175 0.50312,-7.91894 0.20094,-2.61841 0.41051,-5.23619 0.64645,-7.85171 0.23391,-2.57943 0.47804,-5.15797 0.75276,-7.73342 0.27236,-2.54305 0.56161,-5.08419 0.85541,-7.62485 0.2433,-2.58145 0.51995,-5.16017 0.7209,-7.74526 0.20408,-2.64661 0.40469,-5.29311 0.50902,-7.94606 0.0866,-2.71426 0.17683,-5.4284 0.27804,-8.14216 0.10084,-2.69068 0.20595,-5.38121 0.32396,-8.07119 0.11743,-2.66323 0.23986,-5.32625 0.37748,-7.98852 0.13673,-2.63127 0.27931,-5.26225 0.43982,-7.89219 0.15915,-2.59407 0.3252,-5.18774 0.51242,-7.77996 0.18523,-2.5508 0.37855,-5.10104 0.59697,-7.64924 0.21552,-2.50046 0.44058,-5.00014 0.69542,-7.49695 0.25069,-2.44196 0.51263,-4.88283 0.81004,-7.31961 0.29148,-2.37404 0.59629,-4.74653 0.94336,-7.11318 0.33884,-2.29639 0.69412,-4.59044 1.09576,-6.87681 0.39501,-2.2503 0.79982,-4.4984 1.12896,-6.75967 0.3071,-2.27795 0.653,-4.5507 0.93675,-6.83157 0.2818,-2.27552 0.59755,-4.54712 0.80875,-6.83072 0.23484,-2.30837 0.40379,-4.62465 0.54652,-6.94029 0.12921,-2.33642 0.2518,-4.67253 0.29096,-7.01265 0.0646,-2.36096 0.0955,-4.72384 0.01,-7.08484 -0.0772,-2.3661 -0.16837,-4.73148 -0.38668,-7.08976 -0.24287,-2.39921 -0.48431,-4.79998 -0.873,-7.18102 -0.38378,-2.4372 -0.85722,-4.85915 -1.35067,-7.27633 -0.49579,-2.37019 -1.01389,-4.73598 -1.60157,-7.08535 -0.57681,-2.29162 -1.17988,-4.577 -1.86508,-6.83898 -0.6711,-2.201 -1.37312,-4.39311 -2.17161,-6.55176 -0.78098,-2.09684 -1.59882,-4.18063 -2.52537,-6.21819 -0.89668,-1.96365 -1.82093,-3.91599 -2.8084,-5.83575 -0.97909,-1.83779 -2.00593,-3.65122 -3.16494,-5.38295 -1.15228,-1.71759 -2.35451,-3.4008 -3.51088,-5.11567 -1.18598,-1.68417 -2.41059,-3.34145 -3.65514,-4.98271 -1.22949,-1.65736 -2.502,-3.2822 -3.70774,-4.95728 -1.2468,-1.63447 -2.47729,-3.28179 -3.77556,-4.8763 -1.31021,-1.5774 -2.62469,-3.15198 -3.96701,-4.70207 -1.37963,-1.51525 -2.80147,-2.99291 -4.26327,-4.42907 -1.45589,-1.45501 -2.965,-2.8547 -4.45457,-4.27495 -1.51241,-1.40257 -3.0327,-2.79469 -4.64557,-4.08296 -1.62879,-1.30888 -3.2819,-2.58611 -4.97454,-3.81166 -1.71388,-1.24343 -3.41845,-2.49918 -5.11618,-3.7645 -1.70491,-1.27253 -3.41693,-2.53565 -5.09349,-3.84571 -1.67406,-1.31331 -3.36763,-2.60163 -5.06456,-3.88516 -1.66227,-1.27918 -3.32634,-2.55673 -4.95437,-3.87941 -1.61951,-1.28398 -3.19756,-2.62095 -4.86778,-3.84009 -1.63676,-1.23504 -3.31427,-2.41618 -4.98812,-3.59999 -1.72625,-1.15668 -3.46537,-2.29332 -5.25646,-3.34827 -1.79383,-1.08421 -3.611,-2.12913 -5.48424,-3.07137 -1.8289,-0.90515 -3.67013,-1.79113 -5.56698,-2.54645 -1.89225,-0.74356 -3.78803,-1.47941 -5.70062,-2.16925 -1.91667,-0.68778 -3.84419,-1.34482 -5.76983,-2.00692 -1.88613,-0.66384 -3.77933,-1.3069 -5.66635,-1.96823 -1.88327,-0.61939 -3.77594,-1.20983 -5.65021,-1.85638 -1.83383,-0.61689 -3.6771,-1.20586 -5.52787,-1.76989 -1.83392,-0.55598 -3.68484,-1.05104 -5.53909,-1.53442 -1.8236,-0.45859 -3.63551,-0.96127 -5.46043,-1.41436 -1.76381,-0.43983 -3.53455,-0.8503 -5.30487,-1.26307 -1.71628,-0.37208 -3.42651,-0.77664 -5.15991,-1.06372 -1.70874,-0.27555 -3.41977,-0.55372 -5.14947,-0.66011 -1.77257,-0.10759 -3.54732,-0.1024 -5.32207,-0.0471 -1.67895,0.0351 -3.35787,0.0721 -5.03659,0.11734 -1.48376,0.0405 -2.96747,0.0834 -4.45081,0.13724 -1.25765,0.0464 -2.51514,0.0968 -3.77223,0.15678 -1.04689,0.0471 -2.09418,0.0883 -3.14203,0.0381 -0.87302,-0.0324 -1.74955,-0.0918 -2.59896,-0.31112 -0.65699,-0.18807 -1.30727,-0.40766 -1.87153,-0.80575 -0.53202,-0.39067 -1.06662,-0.84437 -1.15652,-1.53711 3.3533,-5.99784 3.16798,-9.74965 7.6749,-12.22041 0.93181,-0.48286 1.89651,-0.89684 2.88516,-1.2497 1.55418,-0.55377 3.12744,-1.05215 4.72024,-1.48352 2.21223,-0.59309 4.4384,-1.12863 6.66781,-1.65297 2.30531,-0.57036 4.60597,-1.15935 6.91705,-1.70625 2.31076,-0.56529 4.63191,-1.08836 6.93217,-1.69605 2.2446,-0.59796 4.48227,-1.22359 6.69359,-1.93624 2.1463,-0.69643 4.28259,-1.42565 6.38122,-2.25649 2.03985,-0.81286 4.06094,-1.67109 6.04972,-2.60282 1.97908,-0.89773 3.95017,-1.81163 5.89414,-2.78374 1.93292,-0.94466 3.83651,-1.94586 5.73827,-2.9515 1.88502,-1.01719 3.76352,-2.0465 5.63883,-3.08147 1.86717,-1.03362 3.71123,-2.1083 5.55706,-3.17942 1.82656,-1.06027 3.64453,-2.13509 5.47348,-3.19124 1.76722,-1.06563 3.51145,-2.16991 5.23475,-3.30517 1.6987,-1.14327 3.39598,-2.28815 5.05331,-3.49123 1.645,-1.15805 3.30404,-2.29823 4.89643,-3.52868 1.55678,-1.20576 3.12793,-2.39304 4.67214,-3.61493 1.53823,-1.20654 3.08222,-2.40595 4.59168,-3.64859 1.47106,-1.20567 2.93466,-2.42083 4.38676,-3.64925 1.36777,-1.17259 2.75016,-2.32862 4.09274,-3.53019 1.3208,-1.16719 2.6425,-2.33378 3.91611,-3.55279 1.23798,-1.1877 2.45183,-2.40011 3.62929,-3.64803 1.14675,-1.20922 2.28514,-2.42665 3.35575,-3.70471 1.03522,-1.24345 2.07233,-2.48537 3.15059,-3.69199 1.03299,-1.15464 2.05565,-2.31851 3.1026,-3.46039 1.00714,-1.08106 2.06718,-2.10742 3.21559,-3.03945 1.11652,-0.89368 2.29233,-1.71427 3.60054,-2.30689 1.30962,-0.5798 2.66253,-1.05061 4.0608,-1.36953 1.355,-0.28537 2.72323,-0.49648 4.09786,-0.66324 1.1859,-0.13419 2.37591,-0.24545 3.55182,-0.45422 1.02206,-0.21024 2.0387,-0.46352 2.99013,-0.90314 0.95956,-0.44821 1.87788,-0.97471 2.68767,-1.66463 0.84492,-0.7332 1.64459,-1.53008 2.183,-2.5234 -11.03645,19.14487 -6.38324,11.8402 -4.49596,7.40058 0.5433,-1.47621 0.99128,-2.99174 1.18223,-4.55807 0.19071,-1.74349 0.22634,-3.49641 0.10715,-5.24743 -0.11318,-1.86913 -0.36464,-3.72515 -0.74261,-5.5598 -0.41854,-1.90474 -0.86882,-3.80256 -1.47515,-5.65806 -0.64067,-1.90125 -1.30958,-3.79563 -2.15423,-5.61793 -0.88881,-1.88856 -1.83719,-3.74745 -2.75678,-5.62105 -0.93746,-1.86455 -1.80791,-3.76115 -2.73603,-5.63026 -0.92743,-1.85069 -1.78409,-3.73552 -2.7251,-5.57939 -0.93279,-1.76551 -1.91161,-3.50823 -3.02839,-5.1655 -1.09886,-1.61785 -2.27173,-3.17943 -3.4719,-4.72331 -1.17146,-1.51446 -2.31797,-3.05354 -3.66047,-4.42488 -1.31955,-1.34975 -2.69972,-2.64208 -4.22524,-3.75958 -1.54756,-1.12682 -3.13552,-2.20384 -4.79834,-3.15447 -1.70872,-0.95431 -3.43319,-1.88985 -5.28823,-2.53514 -1.98814,-0.6947 -4.01632,-1.25193 -6.07984,-1.67722 -2.17966,-0.44955 -4.37154,-0.83577 -6.58572,-1.07402 -2.26064,-0.25608 -4.5279,-0.45573 -6.80239,-0.53508 -2.34372,-0.0967 -4.69018,-0.15299 -7.03581,-0.0942 -2.40928,0.0645 -4.81674,0.18165 -7.22467,0.28346 -2.37547,0.10522 -4.7511,0.22831 -7.12926,0.24786 -2.36777,0.0222 -4.73596,-0.002 -7.10228,-0.0933 -2.38792,-0.1116 -4.77549,-0.23574 -7.15575,-0.46357 -2.39917,-0.21142 -4.79794,-0.43704 -7.18015,-0.79846 -2.42625,-0.36589 -4.84417,-0.7849 -7.25547,-1.23889 -2.35789,-0.4511 -4.71207,-0.92277 -7.05226,-1.45913 -2.27763,-0.52535 -4.54999,-1.07502 -6.80224,-1.70154 -2.18517,-0.61196 -4.36278,-1.25268 -6.51132,-1.98447 -2.07895,-0.71315 -4.14692,-1.46042 -6.17296,-2.31425 -1.95569,-0.83004 -3.89203,-1.70491 -5.78576,-2.66926 -1.86589,-0.92923 -3.7438,-1.8344 -5.60261,-2.77784 -1.78376,-0.92837 -3.56271,-1.86691 -5.30049,-2.87964 -1.70805,-0.95462 -3.37054,-1.98388 -5.06035,-2.96951 -1.68822,-0.93199 -3.37519,-1.87121 -5.13378,-2.66636 -1.74753,-0.7863 -3.50033,-1.56246 -5.29499,-2.2367 -1.82764,-0.66259 -3.66229,-1.31645 -5.54037,-1.82317 -1.93535,-0.52269 -3.89511,-0.94592 -5.8686,-1.29856 -2.02496,-0.35267 -4.05409,-0.68117 -6.07518,-1.05496 -1.99359,-0.40901 -3.98327,-0.83886 -5.95603,-1.34014 -1.85515,-0.47552 -3.70447,-0.97616 -5.52753,-1.56461 -1.69659,-0.55308 -3.38431,-1.13659 -5.03043,-1.82791 -1.51626,-0.64412 -3.01833,-1.32558 -4.45468,-2.13552 -1.30837,-0.746241 -2.57763,-1.553046 -3.8231,-2.400135 -1.14235,-0.793932 -2.23389,-1.651076 -3.28396,-2.56396 -0.94209,-0.833535 -1.80858,-1.741193 -2.72358,-2.603433 -0.79614,-0.794838 -1.57849,-1.604121 -2.34875,-2.423896 -0.61257,-0.69583 -1.26157,-1.366952 -1.97684,-1.95789 -0.60803,-0.466354 -1.21577,-0.926273 -1.92069,-1.241728 -0.55071,-0.252297 -1.09586,-0.449647 -1.71501,-0.396983 -0.63797,0.07815 -1.21196,0.337163 -1.73395,0.711949 -0.74853,0.550853 -1.42103,1.190045 -1.97806,1.937798 -0.19589,0.265629 -1.7244,2.775443 -0.96923,1.461712 10.37715,-18.052603 7.37588,-12.93746 5.25249,-9.092047 -0.79799,1.589642 -1.52641,3.213642 -2.11038,4.895485 -0.718,2.006043 -1.34288,4.042699 -2.06905,6.045954 -0.71582,1.936794 -1.46679,3.861531 -2.33072,5.737956 -2.59468,5.587438 -5.81467,10.853438 -9.01182,16.116548 -1.02167,1.617 -2.0953,3.20365 -3.32567,4.67142 -1.26576,1.49094 -2.59154,2.93315 -4.06795,4.22035 -1.48797,1.28431 -3.04315,2.48269 -4.66879,3.58894 -1.61499,1.12706 -3.24825,2.2267 -4.92828,3.25535 -1.66817,1.03804 -3.35087,2.05203 -5.03304,3.06715 -1.68448,0.99586 -3.39252,1.9514 -5.07925,2.94356 -1.65606,0.97969 -3.31327,1.95695 -4.94234,2.98134 -1.62183,0.98529 -3.24481,1.96873 -4.87207,2.945 -1.58728,0.93528 -3.17215,1.87517 -4.77965,2.77547 -1.56662,0.86778 -3.14129,1.72125 -4.72413,2.55903 -1.52019,0.77547 -3.04566,1.5407 -4.57846,2.29092 -1.49011,0.71265 -2.99667,1.38886 -4.50784,2.05557 -1.46118,0.63144 -2.93215,1.24033 -4.41295,1.82433 -1.41621,0.54423 -2.84026,1.06855 -4.27249,1.56913 -1.35967,0.47703 -2.73315,0.91436 -4.1288,1.27484 -1.27328,0.34288 -2.54372,0.69595 -3.81883,1.03198 -1.10988,0.31358 -2.22435,0.60911 -3.33948,0.90348 -0.96287,0.2291 -1.92672,0.45131 -2.89881,0.63842 -0.77506,0.15427 -1.55763,0.28505 -2.34283,0.37347 -0.54483,0.0618 -1.08854,0.14579 -1.63854,0.11873 l 5.82233,-11.42697 z"
       inkscape:connector-curvature="0"
       sodipodi:nodetypes="cccccccccccccccccccccssccccccccccccccccccccccccccccccccccccccccccccccccccccccccccccccccccccccccccccccccccccccccccccccccccccccccccccccccccccccccccccccccccccccccccccccccccccccccccccccccccccccccccccccccccccccccccccccccccccccccccccccccccsccccccccccccccccccccccccccccccccccccccccccccccccccccccccccccscccscccccccccccccccccccccccccccccccccccccccccccccccccccccccccccccccccccccccccccccccccccccccccccccccccccccccccccccccccccccccccccccccccccccccccccccccccccccccccccccccccccccccccccccccccsccccccccccccccccccccccccccccccccccccccccccccccccccccccccccccccccccccccccccccccccccccccccccccccccccccccccccccccccccccccccccccccccccccccccccccccccccccccccccccccccccccccccccccccccccccccccccccccccccccccccccccccccccccccccccccccccccccccccccccccccccccccccccccccccccccccccccccccccccccccccccccccccccccccccccccccccccccccccccccccsccccccccccccccccccccccccccc" />
  </g>
</svg>
