<?xml version="1.0" encoding="utf-8"?>
<!-- Generator: Adobe Illustrator 16.0.0, SVG Export Plug-In . SVG Version: 6.00 Build 0)  -->
<!DOCTYPE svg PUBLIC "-//W3C//DTD SVG 1.1//EN" "http://www.w3.org/Graphics/SVG/1.1/DTD/svg11.dtd">
<svg version="1.1" id="Layer_1" xmlns="http://www.w3.org/2000/svg" xmlns:xlink="http://www.w3.org/1999/xlink" x="0px" y="0px"
	 width="186.09px" height="49.52px" viewBox="0 0 186.09 49.52" enable-background="new 0 0 186.09 49.52" xml:space="preserve">
<g>
	<g>
		<path fill="#323233" d="M49.34,38.3l5.31-3.7c2,2.85,5,4.16,8.7,4.16c3.93,0,5.7-1.31,5.7-3.46c0-2.62-2.39-3-7.85-4.54
			c-4.77-1.31-9.55-3.54-9.55-9.93c0-6.47,5.16-9.55,11.55-9.55c5.16,0,8.78,2.16,11.24,4.85l-4.54,4.47
			c-1.54-1.77-3.77-3.16-6.7-3.16s-4.54,1.08-4.54,3c0,2.46,2,3,7.08,4.31c5.08,1.31,10.62,3.31,10.62,10.16
			c0,5.54-3.39,10.09-12.55,10.09C56.43,45,51.5,41.77,49.34,38.3z"/>
		<path fill="#323233" d="M97.73,17.75c-4.23,0-6.7,1.85-8.47,3.85l-4.47-4.54c2.85-3.39,6.7-5.77,13.55-5.77
			c7.78,0,13.63,4.39,13.63,13.94v19.1h-7.78l0.23-4.62C102.12,43.15,99.04,45,94.26,45c-6.39,0-11.63-3-11.63-10.24
			c0-6.7,5.39-9.62,12.71-9.7h8.86C104.2,19.9,101.89,17.75,97.73,17.75z M95.88,30.45c-3.39,0-5.62,1.23-5.62,4.08
			c0,2.77,2.16,4.23,6.16,4.23c4.54,0,7.78-2.23,7.78-5.77v-2.54H95.88z"/>
		<path fill="#323233" d="M118.1,28.14c0-9.63,7.39-16.86,17.25-16.86c6.08,0,10.01,2.31,13.09,6.16l-5.54,4.47
			c-1.54-2.23-4.24-3.77-7.55-3.77c-5.77,0-9.24,4.23-9.24,10.01c0,5.77,3.46,10.01,9.24,10.01c3.85,0,6.16-1.62,7.93-3.62
			l5.31,4.62c-3.16,3.62-7.01,5.85-13.24,5.85C125.49,45,118.1,37.84,118.1,28.14z"/>
		<path fill="#323233" d="M163.07,44.31h-7.78V0h7.78v20.82c0,2-0.23,4-0.38,5.7l12.94-14.55h8.85l-11.93,13.47l13.55,18.86h-9.16
			l-9.78-13.78l-4.08,4.23V44.31z"/>
	</g>
	<path fill="#F05965" d="M0,37.27c0,9.53,7.72,12.25,17.25,12.25S34.5,46.8,34.5,37.27c0-9.53-11.75-19.25-17.25-19.25
		S0,27.75,0,37.27z"/>
	<path fill="#F05965" d="M24.87,8.31L24.87,8.31c0.34-0.61,0.54-1.32,0.54-2.07c0-2.34-1.9-4.24-4.24-4.24
		c-1.76,0-3.28,1.73-3.91,3.26C16.61,3.73,15.1,2,13.33,2c-2.34,0-4.24,1.9-4.24,4.24c0,1.02,0.36,1.95,0.96,2.68
		c0,0,4.8,6.23,7.12,6.23c2.32,0,7.25-6.2,7.25-6.2C24.59,8.76,24.74,8.54,24.87,8.31L24.87,8.31z"/>
</g>
<g>
</g>
<g>
</g>
<g>
</g>
<g>
</g>
<g>
</g>
<g>
</g>
</svg>
